<svg width="24" height="24" viewBox="0 0 24 24" fill="none" xmlns="http://www.w3.org/2000/svg">
<path d="M7.59 17.59L4.41 14.41" stroke="#0ABF53" stroke-width="2" stroke-linecap="round" stroke-linejoin="round"/>
<path d="M19.33 6.10999L16.67 7.88999" stroke="#0ABF53" stroke-width="2" stroke-linecap="round" stroke-linejoin="round"/>
<path d="M13.97 10.71L10.03 17.29" stroke="#0ABF53" stroke-width="2" stroke-linecap="round" stroke-linejoin="round"/>
<path d="M3 15C4.10457 15 5 14.1046 5 13C5 11.8954 4.10457 11 3 11C1.89543 11 1 11.8954 1 13C1 14.1046 1.89543 15 3 15Z" stroke="#0ABF53" stroke-width="2" stroke-linecap="round" stroke-linejoin="round"/>
<path d="M9 21C10.1046 21 11 20.1046 11 19C11 17.8954 10.1046 17 9 17C7.89543 17 7 17.8954 7 19C7 20.1046 7.89543 21 9 21Z" stroke="#0ABF53" stroke-width="2" stroke-linecap="round" stroke-linejoin="round"/>
<path d="M21 7C22.1046 7 23 6.10457 23 5C23 3.89543 22.1046 3 21 3C19.8954 3 19 3.89543 19 5C19 6.10457 19.8954 7 21 7Z" stroke="#0ABF53" stroke-width="2" stroke-linecap="round" stroke-linejoin="round"/>
<path d="M15 11C16.1046 11 17 10.1046 17 9C17 7.89543 16.1046 7 15 7C13.8954 7 13 7.89543 13 9C13 10.1046 13.8954 11 15 11Z" stroke="#0ABF53" stroke-width="2" stroke-linecap="round" stroke-linejoin="round"/>
</svg>
