<?xml version="1.0" encoding="UTF-8"?>
<svg width="160px" height="70px" viewBox="0 0 160 70" version="1.1" xmlns="http://www.w3.org/2000/svg" xmlns:xlink="http://www.w3.org/1999/xlink">
    <!-- Generator: Sketch 50.2 (55047) - http://www.bohemiancoding.com/sketch -->
    <title>microsoft-logobar-svg</title>
    <desc>Created with Sketch.</desc>
    <defs></defs>
    <g id="microsoft-logobar-svg" stroke="none" stroke-width="1" fill="none" fill-rule="evenodd">
        <g id="Group" transform="translate(19.000000, 22.000000)" fill="#00112C" fill-rule="nonzero">
            <path d="M43.0635762,15.1833491 L42.3364238,17.2677389 L42.2758278,17.2677389 C42.1546358,16.7977294 41.9324503,16.0824976 41.5688742,15.2242195 L37.6705298,5.31315043 L33.8529801,5.31315043 L33.8529801,21.1095553 L36.3778146,21.1095553 L36.3778146,11.3619678 C36.3778146,10.748912 36.3778146,10.0541154 36.3576159,9.19583728 C36.3374172,8.7666982 36.2970199,8.4397351 36.2768212,8.19451277 L36.3374172,8.19451277 C36.4586093,8.80756859 36.6,9.25714286 36.7009934,9.54323557 L41.3870861,21.068685 L43.1645695,21.068685 L47.8102649,9.4410596 C47.9112583,9.17540208 48.0122517,8.64408704 48.113245,8.19451277 L48.1738411,8.19451277 C48.113245,9.35931883 48.0728477,10.4015137 48.052649,11.0350047 L48.052649,21.0482498 L50.7390728,21.0482498 L50.7390728,5.27228004 L47.0629139,5.27228004 L43.0635762,15.1833491 Z M53.284106,9.72715232 L55.9099338,9.72715232 L55.9099338,21.0482498 L53.284106,21.0482498 L53.284106,9.72715232 Z M54.6172185,4.94531693 C54.1728477,4.94531693 53.8092715,5.10879849 53.5062914,5.3948912 C53.2033113,5.68098392 53.0417219,6.04881741 53.0417219,6.49839167 C53.0417219,6.92753075 53.2033113,7.29536424 53.5062914,7.58145695 C53.8092715,7.86754967 54.1728477,8.01059603 54.6172185,8.01059603 C55.0615894,8.01059603 55.4453642,7.84711447 55.7281457,7.58145695 C56.0311258,7.29536424 56.1927152,6.92753075 56.1927152,6.49839167 C56.1927152,6.0692526 56.0311258,5.70141911 55.7281457,5.3948912 C55.4655629,5.10879849 55.0817881,4.94531693 54.6172185,4.94531693 Z M65.2215232,9.62497635 C64.736755,9.52280038 64.2317881,9.4614948 63.7470199,9.4614948 C62.555298,9.4614948 61.4645695,9.72715232 60.5556291,10.2584674 C59.6466887,10.7897824 58.9195364,11.5254494 58.4549669,12.4450331 C57.9701987,13.385052 57.7278146,14.4681173 57.7278146,15.7146641 C57.7278146,16.7977294 57.9701987,17.7581835 58.4347682,18.6368969 C58.8993377,19.495175 59.5456954,20.1899716 60.4142384,20.6599811 C61.2423841,21.1299905 62.2119205,21.3752129 63.302649,21.3752129 C64.5549669,21.3752129 65.6254967,21.1095553 66.4738411,20.6191107 L66.4940397,20.5986755 L66.4940397,18.1464522 L66.3930464,18.228193 C66.0092715,18.5142857 65.5649007,18.759508 65.1205298,18.9025544 C64.6559603,19.066036 64.2317881,19.1477767 63.8682119,19.1477767 C62.8178808,19.1477767 61.9897351,18.8412488 61.4039735,18.1668874 C60.7980132,17.5129612 60.4950331,16.6138127 60.4950331,15.489877 C60.4950331,14.325071 60.7980132,13.4054872 61.4241722,12.7311258 C62.0503311,12.0567644 62.8784768,11.7093661 63.8884106,11.7093661 C64.736755,11.7093661 65.605298,11.9954588 66.3930464,12.5676443 L66.4940397,12.6493851 L66.4940397,10.0541154 L66.4738411,10.0336802 C66.1304636,9.89063387 65.7466887,9.72715232 65.2215232,9.62497635 Z M73.886755,9.54323557 C73.2403974,9.54323557 72.6344371,9.74758751 72.1092715,10.1767266 C71.6649007,10.5445601 71.3619205,11.0758751 71.0993377,11.7093661 L71.0791391,11.7093661 L71.0791391,9.72715232 L68.4533113,9.72715232 L68.4533113,21.0482498 L71.0791391,21.0482498 L71.0791391,15.2650899 C71.0791391,14.2842006 71.2811258,13.4667928 71.7254967,12.8741722 C72.1698675,12.2611164 72.7354305,11.9545885 73.4221854,11.9545885 C73.6645695,11.9545885 73.9069536,12.015894 74.2099338,12.0567644 C74.4927152,12.1385052 74.694702,12.220246 74.8360927,12.3224219 L74.9370861,12.4041627 L74.9370861,9.74758751 L74.8764901,9.72715232 C74.694702,9.60454115 74.3311258,9.54323557 73.886755,9.54323557 Z M81.0370861,9.48192999 C79.1990066,9.48192999 77.7245033,10.0336802 76.6943709,11.1167455 C75.6440397,12.1998108 75.1390728,13.6915799 75.1390728,15.5716178 C75.1390728,17.3290445 75.6642384,18.759508 76.6741722,19.8017029 C77.684106,20.8234626 79.0576159,21.3547777 80.7745033,21.3547777 C82.5721854,21.3547777 84.0062914,20.8030274 85.0364238,19.699527 C86.086755,18.5960265 86.5917219,17.1246925 86.5917219,15.3059603 C86.5917219,13.5076632 86.1069536,12.0771996 85.1172185,11.0350047 C84.1678808,9.99280984 82.7741722,9.48192999 81.0370861,9.48192999 Z M83.1377483,18.1873226 C82.6529801,18.8208136 81.8854305,19.1273415 80.9360927,19.1273415 C79.986755,19.1273415 79.2192053,18.8208136 78.6738411,18.1464522 C78.1284768,17.5129612 77.865894,16.5933775 77.865894,15.4285714 C77.865894,14.222895 78.1486755,13.3033113 78.6738411,12.6493851 C79.2192053,11.9954588 79.9665563,11.6684957 80.915894,11.6684957 C81.8450331,11.6684957 82.5721854,11.9750237 83.097351,12.6085147 C83.6225166,13.2420057 83.905298,14.1615894 83.905298,15.3672658 C83.8649007,16.5933775 83.6427152,17.5538316 83.1377483,18.1873226 Z M92.4493377,14.4272469 C91.6211921,14.0798486 91.0960265,13.8141911 90.8536424,13.589404 C90.6516556,13.385052 90.5506623,13.0989593 90.5506623,12.7311258 C90.5506623,12.4245979 90.6718543,12.11807 90.9748344,11.9137181 C91.2778146,11.7093661 91.6211921,11.6071902 92.1261589,11.6071902 C92.5705298,11.6071902 93.0350993,11.6889309 93.4794702,11.8115421 C93.9238411,11.9341533 94.3278146,12.11807 94.6509934,12.3632923 L94.7519868,12.4450331 L94.7519868,9.95193945 L94.6913907,9.93150426 C94.3884106,9.80889309 93.9844371,9.68628193 93.4996689,9.58410596 C93.0149007,9.50236518 92.5705298,9.4614948 92.2069536,9.4614948 C90.9546358,9.4614948 89.9245033,9.76802271 89.1165563,10.4423841 C88.3086093,11.0758751 87.9248344,11.9341533 87.9248344,12.9354778 C87.9248344,13.4667928 88.0056291,13.9368023 88.1874172,14.325071 C88.3692053,14.7133396 88.6317881,15.0811731 88.9953642,15.387701 C89.3589404,15.6737938 89.884106,16.0007569 90.6112583,16.3072848 C91.2172185,16.5729423 91.6817881,16.7772942 91.9645695,16.9407758 C92.247351,17.1042573 92.4291391,17.2881741 92.5705298,17.4312204 C92.6715232,17.594702 92.7321192,17.7990539 92.7321192,18.0647114 C92.7321192,18.8208136 92.1665563,19.1886471 91.0152318,19.1886471 C90.5708609,19.1886471 90.1062914,19.1069063 89.5609272,18.9229896 C89.0155629,18.7390728 88.510596,18.4734153 88.0864238,18.1668874 L87.9854305,18.0851466 L87.9854305,20.6804163 L88.0460265,20.7008515 C88.4298013,20.8847682 88.8943709,21.0073794 89.4599338,21.1504257 C90.0254967,21.2526017 90.5304636,21.3343425 90.9748344,21.3343425 C92.3281457,21.3343425 93.4390728,21.0278146 94.2268212,20.3534532 C95.0347682,19.699527 95.4589404,18.861684 95.4589404,17.7786187 C95.4589404,17.0225166 95.2569536,16.3481552 94.8125828,15.8372753 C94.2268212,15.3468307 93.4996689,14.8359508 92.4493377,14.4272469 Z M102.387086,9.48192999 C100.549007,9.48192999 99.0745033,10.0336802 98.0443709,11.1167455 C97.0142384,12.1998108 96.4890728,13.6915799 96.4890728,15.5716178 C96.4890728,17.3290445 97.0142384,18.759508 98.0241722,19.8017029 C99.034106,20.8234626 100.407616,21.3547777 102.124503,21.3547777 C103.922185,21.3547777 105.356291,20.8030274 106.386424,19.699527 C107.436755,18.5960265 107.941722,17.1246925 107.941722,15.3059603 C107.941722,13.5076632 107.456954,12.0771996 106.467219,11.0350047 C105.517881,9.99280984 104.124172,9.48192999 102.387086,9.48192999 Z M104.46755,18.1873226 C103.982781,18.8208136 103.215232,19.1273415 102.265894,19.1273415 C101.296358,19.1273415 100.549007,18.8208136 100.003642,18.1464522 C99.4582781,17.5129612 99.1956954,16.5933775 99.1956954,15.4285714 C99.1956954,14.222895 99.4784768,13.3033113 100.003642,12.6493851 C100.549007,11.9954588 101.296358,11.6684957 102.245695,11.6684957 C103.154636,11.6684957 103.901987,11.9750237 104.427152,12.6085147 C104.952318,13.2420057 105.235099,14.1615894 105.235099,15.3672658 C105.235099,16.5933775 104.972517,17.5538316 104.46755,18.1873226 Z M121.979801,11.9137181 L119.293377,11.9137181 L119.293377,17.2677389 C119.293377,17.9625355 119.41457,18.4325449 119.656954,18.7186377 C119.919536,19.0251656 120.283113,19.1477767 120.808278,19.1477767 C120.949669,19.1477767 121.131457,19.1273415 121.333444,19.066036 C121.575828,19.0047304 121.717219,18.9229896 121.878808,18.8208136 L121.979801,18.7390728 L121.979801,20.9256386 L121.959603,20.9460738 C121.798013,21.0278146 121.515232,21.1299905 121.131457,21.2117313 C120.767881,21.2730369 120.384106,21.3343425 120.02053,21.3343425 C117.798675,21.3343425 116.687748,20.128666 116.687748,17.7377483 L116.687748,11.9137181 L112.728808,11.9137181 L112.728808,21.0482498 L110.082781,21.0482498 L110.082781,11.8932829 L108.244702,11.8932829 L108.244702,9.72715232 L110.082781,9.72715232 L110.082781,8.15364238 C110.082781,7.35666982 110.26457,6.66187323 110.607947,6.04881741 C110.951325,5.4153264 111.415894,4.94531693 112.042053,4.59791864 C112.668212,4.29139073 113.354967,4.10747398 114.142715,4.10747398 C114.768874,4.10747398 115.253642,4.18921476 115.617219,4.31182592 L115.677815,4.33226112 L115.677815,6.64143803 L115.576821,6.58013245 C115.152649,6.3962157 114.768874,6.31447493 114.405298,6.31447493 C113.880132,6.31447493 113.45596,6.47795648 113.173179,6.80491958 C112.890397,7.13188269 112.728808,7.64276254 112.728808,8.29668874 L112.728808,9.72715232 L116.687748,9.72715232 L116.687748,7.17275307 L116.748344,7.15231788 L119.25298,6.3962157 L119.333775,6.37578051 L119.333775,9.72715232 L121.979801,9.72715232 L121.979801,11.9137181 Z" id="Combined-Shape"></path>
            <polygon id="Shape" points="0 0 12.3817881 0 12.3817881 12.5267739 0 12.5267739"></polygon>
            <polygon id="Shape" points="13.6745033 0 26.0562914 0 26.0562914 12.5267739 13.6745033 12.5267739"></polygon>
            <polygon id="Shape" points="0 13.8346263 12.3817881 13.8346263 12.3817881 26.3614002 0 26.3614002"></polygon>
            <polygon id="Shape" points="13.6745033 13.8346263 26.0562914 13.8346263 26.0562914 26.3614002 13.6745033 26.3614002"></polygon>
        </g>
    </g>
</svg>