<?xml version="1.0" encoding="utf-8"?>
<!-- Generator: Adobe Illustrator 24.0.0, SVG Export Plug-In . SVG Version: 6.00 Build 0)  -->
<svg version="1.1" id="Layer_1" xmlns="http://www.w3.org/2000/svg" xmlns:xlink="http://www.w3.org/1999/xlink" x="0px" y="0px"
	 viewBox="0 0 160 70" style="enable-background:new 0 0 160 70;" xml:space="preserve">
<style type="text/css">
	.st0{fill:#00112C;}
</style>
<path class="st0" d="M68.3,31.4h3.5v10.9h-3.5V31.4z"/>
<path class="st0" d="M72.5,31.4h3.4v1.5h0.1c0.8-1.2,1.9-1.8,3.4-1.8c2.4,0,3.8,1.7,3.8,4.1v7.1h-3.5v-6.4c0-1.2-0.6-1.9-1.7-1.9
	c-1.2,0-1.9,1-1.9,2.3v6h-3.5V31.4z"/>
<path class="st0" d="M70,30.6c1.2,0,2.1-0.9,2.1-2.1c0-1.2-0.9-2.1-2.1-2.1c-1.2,0-2.1,0.9-2.1,2.1C68,29.6,68.9,30.6,70,30.6z"/>
<path class="st0" d="M107.6,31.2c-0.1,0-0.2,0-0.3,0c-1.3,0-2.2,0.6-3,1.9h-0.1v-1.7h-3.3v10.9h3.5v-4.9c0-2.3,1.3-3.3,3.3-3.1V31.2
	z"/>
<path class="st0" d="M124.7,35.4c-1.4-0.3-2.6-0.4-2.6-1.1c0-0.7,0.7-1,1.5-1c1,0,1.6,0.3,1.8,1.3h3.2c-0.2-2.2-1.8-3.5-4.9-3.5
	c-2.6,0-4.7,1.2-4.7,3.5c0,2.6,2,3.1,3.9,3.4c1.5,0.3,2.8,0.4,2.8,1.3c0,0.7-0.7,1.1-1.7,1.1c-1,0-1.7-0.4-2-1.3h-3.3
	c0.2,2.3,2.2,3.6,5.3,3.6c2.9,0,5-1.2,5-3.6C128.9,36.2,126.6,35.7,124.7,35.4z"/>
<path class="st0" d="M113.2,40.1c-1.4,0-2.2-0.9-2.5-2.4h7.9c0-2.2-0.6-4.1-1.9-5.3c-0.9-0.9-2.2-1.4-3.7-1.4
	c-3.3,0-5.6,2.5-5.6,5.8c0,3.3,2.2,5.8,5.8,5.8c1.4,0,2.5-0.4,3.4-1c1-0.7,1.6-1.6,1.8-2.6H115C114.7,39.7,114.1,40.1,113.2,40.1z
	 M113,33.5c1.1,0,1.9,0.8,2.1,2.1h-4.3C111,34.4,111.7,33.5,113,33.5z"/>
<path class="st0" d="M135,39.7c-0.2,0-0.4,0-0.6,0c-0.7,0-1.2-0.2-1.2-1.1v-5.1h1.8v-2.2h-1.8v-3.5h-3.4v3.5h-1.1v2.2h1.1v5.9
	c0,2.3,1.5,3,3.5,3c0.8,0,1.4-0.1,1.7-0.1V39.7z"/>
<path class="st0" d="M89.3,39.7c-0.1,0-0.3,0-0.5,0c-0.7,0-1.2-0.2-1.2-1.1v-5.1h1.7v-2.2h-1.7v-3.5h-3.4v3.5h-1.1v2.2h1.1v5.9
	c0,2.3,1.5,3,3.5,3c0.7,0,1.2,0,1.6-0.1V39.7z"/>
<path class="st0" d="M89.2,36.8c0-3.3,2.3-5.8,5.6-5.8c1.6,0,2.8,0.5,3.7,1.4c1.3,1.2,1.9,3.1,1.9,5.3h-7.9c0.2,1.5,1,2.4,2.5,2.4
	c0.9,0,1.5-0.4,1.8-1.1h3.4c-0.2,1-0.9,1.9-1.8,2.6c-0.9,0.6-2,1-3.4,1C91.4,42.6,89.2,40.1,89.2,36.8z M96.9,35.7
	c-0.1-1.3-0.9-2.1-2.1-2.1c-1.3,0-2,0.8-2.2,2.1H96.9z"/>
<path class="st0" d="M56.1,27.1h6c1.9,0,3.2,0.5,4.2,1.4c1,0.9,1.5,2.2,1.5,3.8c0,2.9-2,5-5.2,5h-3.1v5.1h-3.5V27.1L56.1,27.1z
	 M62.3,34.2c1.4,0,2.1-0.8,2.1-2c0-1.2-0.8-2-2.1-2h-2.7v4L62.3,34.2L62.3,34.2z"/>
<path class="st0" d="M38.1,22C30.9,22,25,27.9,25,35.1c0,5.6,3.5,10.3,8.4,12.2c-0.1-1-0.2-2.6,0-3.8c0.2-1,1.5-6.5,1.5-6.5
	s-0.4-0.8-0.4-2c0-1.8,1.1-3.2,2.4-3.2c1.1,0,1.7,0.8,1.7,1.9c0,1.1-0.7,2.8-1.1,4.4c-0.3,1.3,0.7,2.4,2,2.4c2.3,0,4.1-2.5,4.1-6
	c0-3.1-2.3-5.3-5.5-5.3c-3.7,0-5.9,2.8-5.9,5.7c0,1.1,0.4,2.3,1,3c0.1,0.1,0.1,0.2,0.1,0.4c-0.1,0.4-0.3,1.3-0.4,1.5
	c-0.1,0.2-0.2,0.3-0.4,0.2c-1.6-0.8-2.7-3.2-2.7-5.1c0-4.1,3-8,8.7-8c4.6,0,8.1,3.3,8.1,7.6c0,4.5-2.9,8.2-6.8,8.2
	c-1.3,0-2.6-0.7-3-1.5c0,0-0.7,2.5-0.8,3.1c-0.3,1.1-1.1,2.6-1.6,3.4c1.2,0.4,2.5,0.6,3.9,0.6c7.3,0,13.1-5.9,13.1-13.1
	C51.3,27.9,45.4,22,38.1,22z"/>
</svg>
