<svg width="24" height="24" viewBox="0 0 24 24" fill="none" xmlns="http://www.w3.org/2000/svg">
<path d="M4 4.43809C4 4.1696 4.1517 3.92415 4.39184 3.80408V3.80408C9.18129 1.40936 14.8187 1.40936 19.6082 3.80408V3.80408C19.8483 3.92415 20 4.1696 20 4.43809V11.8507C20 13.8949 19.337 15.884 18.1104 17.5194V17.5194C17.3771 18.4972 16.461 19.3234 15.413 19.9522L12 22L8.58698 19.9522C7.53895 19.3234 6.62289 18.4972 5.88957 17.5194V17.5194C4.66303 15.884 4 13.8949 4 11.8507V4.43809Z" stroke="#0ABF53" stroke-width="2" stroke-linecap="round" stroke-linejoin="round"/>
<path d="M5.87297 16.7929C5.48245 17.1834 5.48245 17.8166 5.87297 18.2071C6.2635 18.5976 6.89666 18.5976 7.28718 18.2071L5.87297 16.7929ZM19.2929 3.37297L5.87297 16.7929L7.28718 18.2071L20.7071 4.78718L19.2929 3.37297Z" fill="#0ABF53"/>
</svg>
