<?xml version="1.0" encoding="utf-8"?>
<!-- Generator: Adobe Illustrator 24.0.0, SVG Export Plug-In . SVG Version: 6.00 Build 0)  -->
<svg version="1.1" id="Layer_1" xmlns="http://www.w3.org/2000/svg" xmlns:xlink="http://www.w3.org/1999/xlink" x="0px" y="0px"
	 viewBox="0 0 20 20" style="enable-background:new 0 0 20 20;" xml:space="preserve">
<style type="text/css">
	.st0{fill:#0ABF53;}
</style>
<g>
	<path class="st0" d="M10,0C4.5,0,0,4.5,0,10s4.5,10,10,10s10-4.5,10-10S15.5,0,10,0z M17,13.9c-0.1-0.5-0.5-0.9-1-0.9
		c-0.6,0-1,0.4-1,1s0.4,1,1,1c0.1,0,0.2,0,0.3-0.1C14.8,16.8,12.5,18,10,18c-4.4,0-8-3.6-8-8c0-1.6,0.5-3.1,1.3-4.3
		C3.5,5.9,3.7,6,4,6c0.6,0,1-0.4,1-1c0-0.4-0.2-0.6-0.5-0.8C5.7,3,7.3,2.3,9,2.1C9.1,2.6,9.5,3,10,3s0.9-0.4,1-0.9
		c1.7,0.2,3.3,1,4.5,2.1C15.2,4.4,15,4.6,15,5c0,0.6,0.4,1,1,1c0.3,0,0.5-0.1,0.7-0.3C17.5,6.9,18,8.4,18,10
		C18,11.4,17.6,12.7,17,13.9z"/>
	<circle class="st0" cx="10" cy="14" r="1"/>
	<circle class="st0" cx="10" cy="17" r="1"/>
	<circle class="st0" cx="13" cy="16" r="1"/>
	<circle class="st0" cx="13" cy="13" r="1"/>
	<circle class="st0" cx="10" cy="11" r="1"/>
	<circle class="st0" cx="13" cy="10" r="1"/>
	<circle class="st0" cx="10" cy="8" r="1"/>
	<circle class="st0" cx="13" cy="7" r="1"/>
	<circle class="st0" cx="10" cy="5" r="1"/>
	<circle class="st0" cx="13" cy="4" r="1"/>
	<circle class="st0" cx="16" cy="11" r="1"/>
	<circle class="st0" cx="16" cy="8" r="1"/>
	<circle class="st0" cx="7" cy="10" r="1"/>
	<circle class="st0" cx="7" cy="7" r="1"/>
</g>
</svg>
